<?xml version="1.0" standalone="no"?>
<!DOCTYPE svg PUBLIC "-//W3C//DTD SVG 20010904//EN"
 "http://www.w3.org/TR/2001/REC-SVG-20010904/DTD/svg10.dtd">
<svg version="1.0" xmlns="http://www.w3.org/2000/svg"
 width="651.000000pt" height="979.000000pt" viewBox="0 0 651.000000 979.000000"
 preserveAspectRatio="xMidYMid meet">
<g transform="translate(0.000000,979.000000) scale(0.100000,-0.100000)"
fill="#FFFFFF" stroke="none">
<path d="M5755 9778 c-2 -7 -16 -67 -31 -133 -36 -166 -106 -373 -156 -464
-22 -42 -116 -197 -208 -346 -231 -374 -302 -500 -455 -805 -328 -656 -788
-1712 -913 -2100 -105 -323 -132 -700 -68 -942 51 -195 183 -511 297 -712 60
-106 262 -412 377 -571 44 -60 79 -111 77 -113 -1 -2 -56 28 -122 65 -65 38
-163 86 -218 107 -255 99 -330 133 -475 213 -185 103 -319 186 -414 258 -189
143 -342 343 -427 558 -25 63 -25 63 42 -38 101 -150 347 -386 537 -514 109
-73 381 -222 579 -318 198 -96 217 -96 137 -5 -90 103 -215 278 -258 362 -74
144 -110 263 -171 560 -46 226 -58 373 -52 632 l6 237 -44 6 c-75 12 -102 -5
-187 -113 -185 -236 -275 -426 -309 -651 l-12 -81 -56 0 c-31 0 -96 8 -145 17
-75 14 -90 15 -94 4 -3 -8 -29 46 -58 120 -30 74 -103 233 -163 354 -92 184
-126 242 -211 355 -115 154 -182 225 -259 278 l-53 37 100 48 c100 48 176 67
263 67 l46 0 12 55 c21 93 95 154 185 155 34 0 46 -6 86 -48 58 -61 75 -115
66 -211 l-7 -70 52 -41 c65 -51 113 -76 273 -140 185 -73 257 -91 519 -125 46
-6 47 -1 11 121 -53 185 -206 452 -333 583 -53 54 -158 126 -233 159 -91 40
-189 55 -331 50 -125 -4 -139 -7 -272 -51 -140 -47 -648 -290 -685 -327 -15
-15 -29 -16 -126 -7 -219 20 -1072 -13 -1612 -63 -228 -21 -262 -27 -262 -42
0 -7 57 -7 168 -2 410 21 1051 -7 1622 -72 271 -30 345 -61 494 -204 78 -75
120 -126 198 -245 100 -152 143 -233 332 -633 154 -324 298 -544 476 -723 129
-131 222 -189 619 -385 491 -243 885 -470 1101 -634 95 -72 242 -203 391 -347
103 -100 148 -134 137 -103 -1 5 -100 114 -219 242 -567 611 -651 717 -849
1063 -241 423 -382 752 -415 971 -32 209 -14 457 50 709 36 143 275 790 440
1194 195 478 315 711 602 1165 245 388 505 816 555 915 132 261 152 400 93
659 -16 67 -30 89 -40 60z"/>
<path d="M5770 9082 c-330 -467 -473 -714 -836 -1444 -176 -355 -235 -493
-322 -748 -62 -185 -66 -200 -49 -200 8 0 37 49 66 113 147 317 509 920 951
1582 270 405 276 418 286 577 7 102 -5 192 -26 195 -9 1 -38 -30 -70 -75z"/>
<path d="M5747 8458 c-122 -154 -285 -375 -377 -513 -169 -254 -740 -1161
-740 -1177 0 -35 66 33 399 412 269 306 643 763 708 865 82 129 115 250 111
403 -2 62 -7 97 -15 99 -6 2 -45 -38 -86 -89z"/>
<path d="M5708 7868 c-41 -46 -180 -209 -308 -363 -455 -544 -563 -664 -746
-826 -57 -51 -104 -96 -104 -101 0 -21 45 -2 184 78 309 176 441 278 687 532
174 178 251 283 306 418 50 122 91 333 67 341 -6 2 -45 -34 -86 -79z"/>
<path d="M5540 7214 c-197 -184 -446 -404 -522 -460 -71 -53 -217 -125 -355
-175 -88 -32 -120 -59 -70 -59 106 0 480 81 672 146 145 48 304 139 359 205
63 75 98 183 100 314 1 87 -11 165 -27 164 -7 0 -77 -61 -157 -135z"/>
<path d="M5594 6813 c-35 -55 -120 -136 -164 -158 -101 -50 -371 -126 -515
-144 -44 -5 -143 -13 -220 -17 -85 -4 -143 -11 -147 -18 -4 -6 -8 -27 -8 -48
l0 -36 111 -27 c146 -35 322 -48 554 -42 203 6 265 16 317 50 78 53 108 138
115 330 5 118 4 137 -9 137 -9 0 -24 -12 -34 -27z"/>
<path d="M4392 6363 c-196 -467 -287 -717 -313 -853 -19 -106 -14 -268 15
-411 34 -175 66 -291 79 -286 6 2 19 71 28 159 10 85 27 184 39 219 31 92 94
194 166 268 l63 64 -15 96 c-8 53 -17 173 -21 266 -6 193 2 267 68 574 21 101
39 185 39 187 0 2 -6 4 -14 4 -8 0 -59 -109 -134 -287z"/>
<path d="M4525 6370 c-2 -4 -7 -25 -11 -47 -6 -38 -4 -42 37 -75 58 -47 200
-138 269 -173 30 -16 142 -59 248 -96 106 -38 227 -86 270 -109 120 -62 125
-59 147 86 28 189 17 228 -73 258 -26 9 -186 34 -357 56 -357 46 -389 52 -468
84 -31 13 -59 21 -62 16z"/>
<path d="M2779 6315 c-52 -28 -75 -125 -44 -185 10 -20 28 -33 54 -41 76 -23
161 43 161 124 0 40 -20 85 -45 101 -30 20 -91 20 -126 1z"/>
<path d="M4504 6238 c-5 -7 -10 -51 -12 -99 -4 -71 -1 -94 16 -133 43 -96 208
-234 386 -323 129 -64 235 -133 253 -164 15 -26 22 -30 48 -25 66 13 136 57
166 105 62 96 53 111 -120 202 -64 34 -224 120 -356 193 -201 109 -250 141
-303 194 -35 34 -65 62 -67 62 -2 0 -7 -6 -11 -12z"/>
<path d="M2360 6057 c-36 -8 -55 -17 -55 -27 0 -11 23 -17 95 -26 127 -15 198
-31 300 -66 97 -34 152 -63 230 -124 120 -92 278 -150 513 -189 l37 -6 -75
-87 c-123 -143 -179 -274 -192 -456 -8 -115 7 -112 48 9 64 190 170 357 352
551 31 34 57 66 57 72 0 5 -41 10 -102 10 -84 0 -118 5 -186 26 -126 41 -226
86 -347 158 -159 95 -205 116 -297 138 -104 25 -302 34 -378 17z"/>
<path d="M4474 5895 c-10 -73 2 -214 25 -285 26 -80 76 -148 161 -217 120 -96
298 -185 375 -187 l40 -1 3 100 c2 55 0 110 -3 122 -4 16 -35 38 -113 78 -123
63 -191 112 -315 226 -67 62 -96 97 -120 145 -17 35 -35 64 -39 64 -4 0 -10
-20 -14 -45z"/>
<path d="M4438 5423 c-57 -67 -131 -231 -173 -388 -46 -167 -33 -220 129 -557
192 -398 512 -869 932 -1374 128 -154 288 -324 305 -324 35 0 -44 914 -108
1235 -60 305 -212 676 -376 919 -85 126 -254 281 -426 390 -173 111 -249 137
-283 99z"/>
<path d="M5540 4171 c0 -12 13 -97 30 -189 92 -515 95 -544 95 -924 0 -190 -3
-350 -7 -353 -8 -9 -137 69 -218 131 -30 23 -140 112 -245 198 -236 195 -464
370 -472 362 -14 -14 28 -63 161 -194 304 -296 774 -647 824 -615 27 16 33 73
42 403 l8 315 -3 -379 c-2 -208 -6 -380 -9 -383 -6 -7 -188 90 -237 126 -218
157 -301 222 -464 366 -104 92 -240 216 -300 276 -99 98 -145 129 -145 99 0
-19 342 -360 500 -499 290 -254 390 -337 565 -471 83 -63 157 -120 165 -127 8
-6 39 -30 68 -51 143 -106 373 -350 409 -432 33 -78 85 -250 98 -330 10 -57
13 -130 11 -220 -6 -174 -10 -215 -36 -330 -39 -171 -49 -257 -30 -245 5 3 14
25 20 48 6 23 22 77 35 119 19 60 65 350 65 409 0 5 4 8 9 5 12 -8 22 189 11
242 -5 26 -17 92 -26 147 -31 189 -121 412 -218 541 -59 79 -156 169 -255 239
-89 62 -85 53 -101 223 -5 57 -21 163 -34 235 -14 73 -34 190 -45 261 -20 123
-33 162 -51 151 -5 -3 -11 16 -15 42 -3 27 -15 105 -26 175 -39 250 -179 741
-179 629z"/>
<path d="M5853 2231 c3 -14 0 -17 -13 -14 -22 6 -25 -4 -45 -132 -25 -167 -17
-335 22 -475 23 -82 73 -175 181 -338 93 -140 142 -202 162 -202 13 0 17 -19
45 -245 16 -123 40 -264 60 -340 32 -126 148 -460 166 -479 23 -24 18 15 -20
172 -84 346 -84 346 -85 902 l-1 495 -28 89 c-50 161 -164 362 -254 447 -62
59 -166 139 -181 139 -9 0 -13 -7 -9 -19z m142 -316 c80 -199 96 -265 140
-585 14 -102 28 -196 30 -210 5 -24 5 -25 -11 -5 -8 11 -32 49 -52 85 -93 166
-156 419 -168 684 -4 84 -13 151 -25 186 -9 30 -20 64 -24 75 -16 53 64 -115
110 -230z"/>
</g>
</svg>
